<mxfile host="Electron" modified="2023-11-11T15:41:15.759Z" agent="Mozilla/5.0 (Macintosh; Intel Mac OS X 10_15_7) AppleWebKit/537.36 (KHTML, like Gecko) draw.io/22.0.3 Chrome/114.0.5735.289 Electron/25.8.4 Safari/537.36" etag="lI0slvQuYlOWkgvNp-W-" version="22.0.3" type="device">
  <diagram name="Page-1" id="DIyiCXhy0-kuyBT9qirS">
    <mxGraphModel dx="1710" dy="1142" grid="1" gridSize="10" guides="1" tooltips="1" connect="1" arrows="1" fold="1" page="1" pageScale="1" pageWidth="800" pageHeight="800" math="0" shadow="0">
      <root>
        <mxCell id="0" />
        <mxCell id="1" parent="0" />
        <mxCell id="lnK3_oxfZMVSXyFm2sji-4" value="" style="verticalLabelPosition=bottom;verticalAlign=top;html=1;shape=mxgraph.basic.4_point_star_2;dx=0.8;fillColor=#FF3333;strokeColor=#FF3333;" parent="1" vertex="1">
          <mxGeometry x="315" y="315" width="170" height="170" as="geometry" />
        </mxCell>
      </root>
    </mxGraphModel>
  </diagram>
</mxfile>
